<svg width="40" height="40" viewBox="0 0 37 36" fill="none" xmlns="http://www.w3.org/2000/svg">
<g id="backpack 1" clip-path="url(#clip0_2_776)">
<g id="Backpack">
<g id="Group 55">
<path id="Path 38" d="M28.5538 36H8.45483C7.93618 35.9994 7.43893 35.7931 7.07213 35.4265C6.70534 35.0598 6.49896 34.5626 6.49825 34.0439V16.0194C6.49026 15.8115 6.33832 10.4274 9.87509 6.75788C11.9543 4.60244 14.8598 3.51007 18.5118 3.51007C22.1637 3.51007 25.0692 4.60244 27.1452 6.75788C30.6788 10.4279 30.5167 15.8125 30.5082 16.0402L30.5109 34.0439C30.5103 34.5627 30.3039 35.06 29.937 35.4268C29.57 35.7935 29.0725 35.9997 28.5538 36ZM18.5107 4.57633C15.161 4.57633 12.5151 5.55728 10.6455 7.492C7.42163 10.8294 7.55971 15.9496 7.56184 16.0007V34.0455C7.56212 34.2815 7.65603 34.5077 7.82296 34.6746C7.98988 34.8414 8.21618 34.9352 8.45217 34.9353H28.5511C28.787 34.935 29.0131 34.8412 29.18 34.6744C29.3468 34.5076 29.4406 34.2814 29.4409 34.0455V16.021C29.4409 15.9506 29.5886 10.8304 26.3695 7.49093C24.5036 5.55674 21.8593 4.57633 18.5107 4.57633Z" fill="#4D4D4D"/>
</g>
<g id="Group 56">
<path id="Path 39" d="M18.91 33.8153C14.9305 33.825 10.9533 33.6236 6.99512 33.2118L7.05856 32.6824C7.17158 32.6957 18.5208 34.0248 29.9452 32.6824L30.0081 33.2118C26.3235 33.6267 22.6179 33.8282 18.91 33.8153Z" fill="#4D4D4D"/>
</g>
<g id="Group 57">
<path id="Path 40" d="M7.08898 20.7744L6.96423 19.7156C18.483 18.3604 29.925 19.7028 30.0396 19.7156L29.9127 20.7744C29.7992 20.7605 18.4777 19.4378 7.08898 20.7744Z" fill="#4D4D4D"/>
</g>
<g id="Group 58">
<path id="Path 41" d="M26.0315 31.228H11.0016C10.5535 31.2273 10.124 31.0489 9.80731 30.732C9.49059 30.415 9.3125 29.9855 9.31207 29.5374V23.9054C9.3125 23.4575 9.49063 23.028 9.80737 22.7113C10.1241 22.3945 10.5536 22.2164 11.0016 22.2159H26.0315C26.4794 22.2164 26.9089 22.3945 27.2257 22.7113C27.5424 23.028 27.7206 23.4575 27.721 23.9054V29.5374C27.7206 29.9855 27.5425 30.415 27.2257 30.732C26.909 31.0489 26.4795 31.2273 26.0315 31.228ZM11.0016 22.7512C10.695 22.7515 10.401 22.8734 10.1842 23.0902C9.9674 23.307 9.84548 23.601 9.8452 23.9076V29.5395C9.84548 29.8462 9.96737 30.1403 10.1841 30.3573C10.4009 30.5742 10.6949 30.6964 11.0016 30.697H26.0315C26.3382 30.6964 26.6322 30.5742 26.8489 30.3573C27.0657 30.1403 27.1876 29.8462 27.1879 29.5395V23.9054C27.1876 23.5988 27.0657 23.3049 26.8489 23.0881C26.6321 22.8713 26.3381 22.7494 26.0315 22.7491L11.0016 22.7512Z" fill="#4D4D4D"/>
</g>
<g id="Group 59">
<path id="Rectangle 9" d="M27.4545 24.6172H9.57867V25.1503H27.4545V24.6172Z" fill="#4D4D4D"/>
</g>
<g id="Group 60">
<path id="Path 42" d="M26.0017 30.0418H22.0294V27.6123H26.0017V30.0418ZM22.5625 29.5086H25.4686V28.1454H22.5625V29.5086Z" fill="#4D4D4D"/>
</g>
<g id="Group 61">
<path id="Path 43" d="M11.5646 27.0173C11.3448 27.0171 11.134 26.9296 10.9785 26.7742C10.823 26.6188 10.7355 26.4082 10.735 26.1883L10.7569 26.0817L11.5646 24.2115L12.3941 26.1878C12.3939 26.4077 12.3064 26.6185 12.1509 26.774C11.9954 26.9296 11.7845 27.0171 11.5646 27.0173ZM11.2719 26.2352C11.2831 26.305 11.3187 26.3684 11.3725 26.4143C11.4262 26.4601 11.4945 26.4853 11.5651 26.4853C11.6358 26.4853 11.7041 26.4601 11.7578 26.4143C11.8115 26.3684 11.8472 26.305 11.8584 26.2352L11.5651 25.556L11.2719 26.2352Z" fill="#4D4D4D"/>
</g>
<g id="Group 62">
<path id="Path 44" d="M15.0352 4.09388C14.939 3.0079 15.2497 1.92494 15.9069 1.05508C16.2135 0.717795 16.5883 0.449443 17.0064 0.267751C17.4244 0.0860581 17.8763 -0.00483097 18.3321 0.00108889C18.7836 -0.0339004 19.2374 0.0254576 19.6646 0.175436C20.0919 0.325414 20.4833 0.562712 20.8138 0.872205C21.5718 1.71699 21.9974 2.80814 22.0117 3.94303H20.9455C20.9302 3.09576 20.6203 2.28028 20.069 1.63672C19.8411 1.4285 19.5722 1.27025 19.2795 1.17219C18.9867 1.07413 18.6768 1.03843 18.3694 1.06734C18.0598 1.05746 17.7517 1.11383 17.4656 1.23271C17.1796 1.3516 16.9222 1.53024 16.7108 1.75666C16.2506 2.40406 16.0328 3.19277 16.0956 3.98461L15.0352 4.09388Z" fill="#4D4D4D"/>
</g>
</g>
</g>
<defs>
<clipPath id="clip0_2_776">
<rect width="36" height="36" fill="white" transform="translate(0.5)"/>
</clipPath>
</defs>
</svg>
