<svg width="40" height="40" viewBox="0 0 37 36" fill="none" xmlns="http://www.w3.org/2000/svg">
<g id="belt 2" clip-path="url(#clip0_2_794)">
<g id="Group">
<g id="Group_2">
<g id="Group_3">
<g id="Group_4">
<g id="Group_5">
<path id="Vector" d="M11.2447 18.401C11.1388 18.401 11.0352 18.3585 10.9606 18.2839C10.886 18.2084 10.8436 18.1057 10.8436 17.9999C10.8436 17.8947 10.886 17.7912 10.9606 17.7159C11.0352 17.6412 11.1388 17.5988 11.2447 17.5988C11.3497 17.5988 11.4533 17.6412 11.5278 17.7159C11.6024 17.7905 11.6458 17.894 11.6458 17.9999C11.6458 18.1057 11.6024 18.2092 11.5278 18.2839C11.4533 18.3585 11.3497 18.401 11.2447 18.401Z" fill="#4D4D4D"/>
</g>
</g>
<g id="Group_6">
<g id="Group_7">
<path id="Vector_2" d="M8.01653 18.401C7.91064 18.401 7.80715 18.3585 7.73246 18.2839C7.65786 18.2092 7.61542 18.1057 7.61542 17.9999C7.61542 17.894 7.65786 17.7905 7.73246 17.7159C7.80715 17.6412 7.91064 17.5988 8.01653 17.5988C8.12162 17.5988 8.22511 17.6412 8.29964 17.7159C8.37424 17.7905 8.41764 17.894 8.41764 17.9999C8.41764 18.1057 8.37424 18.2092 8.29964 18.2839C8.22511 18.3585 8.12162 18.401 8.01653 18.401Z" fill="#4D4D4D"/>
</g>
</g>
<g id="Group_8">
<g id="Group_9">
<path id="Vector_3" d="M4.78838 18.401C4.68249 18.401 4.579 18.3585 4.50439 18.2839C4.42971 18.2092 4.38727 18.1057 4.38727 17.9999C4.38727 17.894 4.42971 17.7905 4.50439 17.7159C4.579 17.6412 4.68249 17.5988 4.78838 17.5988C4.89339 17.5988 4.99696 17.6412 5.07149 17.7159C5.14617 17.7905 5.18949 17.894 5.18949 17.9999C5.18949 18.1057 5.14617 18.2092 5.07149 18.2839C4.99696 18.3585 4.89347 18.401 4.78838 18.401Z" fill="#4D4D4D"/>
</g>
</g>
</g>
<g id="Group_10">
<g id="Group_11">
<g id="Group_12">
<path id="Vector_4" d="M17.5397 18.401C17.4338 18.401 17.3304 18.3585 17.2558 18.2839C17.1811 18.2084 17.1385 18.1057 17.1385 17.9999C17.1385 17.8947 17.1811 17.7912 17.2558 17.7159C17.3304 17.6412 17.4338 17.5988 17.5397 17.5988C17.6448 17.5988 17.7483 17.6412 17.8229 17.7159C17.8975 17.7905 17.9408 17.894 17.9408 17.9999C17.9408 18.1057 17.8975 18.2092 17.8229 18.2839C17.7483 18.3585 17.6448 18.401 17.5397 18.401Z" fill="#4D4D4D"/>
</g>
</g>
</g>
<g id="Group_13">
<g id="Group_14">
<g id="Group_15">
<path id="Vector_5" d="M29.2298 18.401C29.1239 18.401 29.0204 18.3585 28.9458 18.2839C28.8711 18.2092 28.8279 18.1057 28.8279 17.9999C28.8279 17.8947 28.8711 17.7912 28.9458 17.7159C29.0204 17.6412 29.1239 17.5988 29.2298 17.5988C29.3349 17.5988 29.4384 17.6412 29.5129 17.7159C29.5876 17.7912 29.6309 17.8947 29.6309 17.9999C29.6309 18.1057 29.5876 18.2092 29.5129 18.2839C29.4384 18.3585 29.3349 18.401 29.2298 18.401Z" fill="#4D4D4D"/>
</g>
</g>
</g>
<path id="Vector_6" d="M36.0989 14.7582H28.6107V14.3984C28.6107 14.1768 28.431 13.9973 28.2095 13.9973H25.7506C25.5291 13.9973 25.3495 14.1768 25.3495 14.3984V14.7582H23.795V14.3984C23.795 14.1768 23.6154 13.9973 23.3939 13.9973H13.6061C13.3846 13.9973 13.2049 14.1768 13.2049 14.3984V14.7582H0.901113C0.679619 14.7582 0.5 14.9378 0.5 15.1594V20.8406C0.5 21.0621 0.679619 21.2417 0.901113 21.2417H13.2049V21.6016C13.2049 21.8231 13.3846 22.0027 13.6061 22.0027H23.3939C23.6154 22.0027 23.795 21.8231 23.795 21.6016V21.2417H25.3495V21.6016C25.3495 21.8231 25.5291 22.0027 25.7506 22.0027H28.2095C28.431 22.0027 28.6107 21.8231 28.6107 21.6016V21.2417H36.0989C36.3205 21.2417 36.5 21.0621 36.5 20.8406V15.1594C36.5 14.9379 36.3205 14.7582 36.0989 14.7582ZM1.30223 20.4395V15.5606H13.2049V20.4395H1.30223ZM22.9927 17.5989H22.3727V16.1889C22.3727 15.9674 22.1932 15.7878 21.9716 15.7878H15.0285C14.807 15.7878 14.6274 15.9674 14.6274 16.1889V19.811C14.6274 20.0326 14.807 20.2121 15.0285 20.2121H21.9716C22.1932 20.2121 22.3727 20.0326 22.3727 19.811V18.4011H22.9927V21.2004H14.0072V14.7995H22.9927V17.5989ZM20.7642 18.4012H21.5705V19.41H15.4296V16.5901H21.5705V17.5989H20.7642C20.5427 17.5989 20.3631 17.7784 20.3631 18C20.3631 18.2215 20.5427 18.4012 20.7642 18.4012ZM25.3495 20.4395H23.795V15.5606H25.3495V20.4395ZM27.8084 21.2005H26.1517V14.7995H27.8084V21.2005ZM31.5187 20.4395H28.6107V15.5606H31.5187C32.4077 15.5606 33.1586 16.6777 33.1586 18C33.1586 19.3224 32.4077 20.4395 31.5187 20.4395ZM35.6978 20.4395H33.1241C33.6365 19.8451 33.961 18.9722 33.961 18C33.961 17.0281 33.6369 16.1551 33.1247 15.5606H35.6978V20.4395Z" fill="#4D4D4D"/>
</g>
</g>
</g>
<defs>
<clipPath id="clip0_2_794">
<rect width="36" height="36" fill="white" transform="translate(0.5)"/>
</clipPath>
</defs>
</svg>
