<svg width="36" height="36" viewBox="0 0 36 36" fill="none" xmlns="http://www.w3.org/2000/svg">
<g id="glasses 2" clip-path="url(#clip0_2_816)">
<g id="Group">
<path id="Vector" d="M36 2.25C36 1.00744 34.9926 0 33.75 0H31.5C30.5679 0 29.8125 0.756 29.8125 1.6875C29.8125 2.619 30.5679 3.375 31.5 3.375H32.625V21.375H22.5C22.1664 21.375 21.8469 21.4279 21.5432 21.5179C20.5763 20.7287 19.3461 20.25 18 20.25C16.6539 20.25 15.4237 20.7287 14.4568 21.5179C14.1531 21.4279 13.8336 21.375 13.5 21.375H3.375V3.375H4.5C5.43206 3.375 6.1875 2.619 6.1875 1.6875C6.1875 0.756 5.43206 0 4.5 0H2.25C1.00744 0 0 1.00744 0 2.25V24.1875H0.050625C0.0196875 24.3709 0 24.5576 0 24.75V29.25C0 32.9777 3.02231 36 6.75 36H10.125C13.8527 36 16.875 32.9777 16.875 29.25V24.75C16.875 24.4901 16.8424 24.2381 16.7873 23.9951C17.1371 23.7656 17.5494 23.625 18 23.625C18.4506 23.625 18.8629 23.7656 19.2127 23.9951C19.1576 24.2381 19.125 24.4901 19.125 24.75V29.25C19.125 32.9777 22.1473 36 25.875 36H29.25C32.9777 36 36 32.9777 36 29.25V24.75C36 24.5576 35.9803 24.3709 35.9494 24.1875H36V2.25ZM1.125 2.25C1.125 1.629 1.629 1.125 2.25 1.125H4.5C4.81106 1.125 5.0625 1.37644 5.0625 1.6875C5.0625 1.99856 4.81106 2.25 4.5 2.25H2.8125C2.50144 2.25 2.25 2.50144 2.25 2.8125V21.5713C1.83037 21.7204 1.44956 21.9487 1.125 22.2396V2.25ZM15.75 29.25C15.75 32.3561 13.2317 34.875 10.125 34.875H6.75C3.64388 34.875 1.125 32.3567 1.125 29.25V24.75C1.125 23.5074 2.13244 22.5 3.375 22.5H13.5C14.7426 22.5 15.75 23.5074 15.75 24.75V29.25ZM19.6554 22.9387C19.1661 22.662 18.603 22.5 18 22.5C17.397 22.5 16.8339 22.662 16.3446 22.9387C16.1376 22.6142 15.8743 22.3307 15.5723 22.0944C16.2731 21.6422 17.1034 21.375 18 21.375C18.8966 21.375 19.7269 21.6422 20.4278 22.0944C20.1257 22.3307 19.863 22.6142 19.6554 22.9387ZM34.875 29.25C34.875 32.3561 32.3567 34.875 29.25 34.875H25.875C22.7689 34.875 20.25 32.3567 20.25 29.25V24.75C20.25 23.5074 21.2574 22.5 22.5 22.5H32.625C33.8676 22.5 34.875 23.5074 34.875 24.75V29.25ZM34.875 22.2396C34.5504 21.9482 34.1696 21.7198 33.75 21.5713V2.8125C33.75 2.50144 33.4986 2.25 33.1875 2.25H31.5C31.1889 2.25 30.9375 1.99856 30.9375 1.6875C30.9375 1.37644 31.1889 1.125 31.5 1.125H33.75C34.371 1.125 34.875 1.629 34.875 2.25V22.2396Z" fill="#4D4D4D"/>
<path id="Vector_2" d="M33.1875 28.6875C32.8764 28.6875 32.625 28.9389 32.625 29.25C32.625 31.1136 31.1136 32.625 29.25 32.625C28.9389 32.625 28.6875 32.8764 28.6875 33.1875C28.6875 33.4986 28.9389 33.75 29.25 33.75C31.7351 33.75 33.75 31.7351 33.75 29.25C33.75 28.9389 33.4986 28.6875 33.1875 28.6875Z" fill="#4D4D4D"/>
<path id="Vector_3" d="M14.0625 28.6875C13.7514 28.6875 13.5 28.9389 13.5 29.25C13.5 31.1136 11.9886 32.625 10.125 32.625C9.81394 32.625 9.5625 32.8764 9.5625 33.1875C9.5625 33.4986 9.81394 33.75 10.125 33.75C12.6101 33.75 14.625 31.7351 14.625 29.25C14.625 28.9389 14.3736 28.6875 14.0625 28.6875Z" fill="#4D4D4D"/>
</g>
</g>
<defs>
<clipPath id="clip0_2_816">
<rect width="36" height="36" fill="white"/>
</clipPath>
</defs>
</svg>
