<svg width="45" height="28" viewBox="0 0 45 28" fill="none" xmlns="http://www.w3.org/2000/svg">
<path d="M40.4596 6.55731C41.6509 7.75989 42.6592 9.00264 43.3427 10.5763L43.6567 11.4104C43.9563 12.179 44.1917 13.134 44.2271 13.9599L44.2337 19.5349C44.2326 19.6112 44.2423 19.7221 44.2198 19.7952C43.9426 20.6949 42.1851 20.5731 41.5384 20.5788C39.8255 20.594 38.1753 20.898 36.5544 21.4491L28.3593 24.8845C22.4435 27.447 19.0603 28.2077 12.8494 25.8883L8.62108 24.1645C8.42571 24.0924 7.29255 23.6415 7.13294 23.67C7.06282 23.6825 6.95444 23.7496 6.88741 23.7801L6.07113 24.1652C4.9234 24.6857 3.74158 25.0461 2.47671 25.0455C1.57635 25.0451 0.45619 24.9203 0.128759 23.9063C-0.135949 23.0865 0.239801 22.6471 0.873345 22.2407L1.48227 21.8653C3.94671 20.4092 7.60038 18.8804 10.3083 17.971L10.9565 12.4121C11.8423 7.23859 16.4518 2.55662 21.5342 1.46589C22.3781 1.28476 24.1399 1.02559 25.0144 1.18684L25.1501 1.05437C25.4214 0.733933 25.6446 0.707074 26.0453 0.699011L27.457 0.693199C27.6206 0.693527 27.8945 0.66287 28.0449 0.722027L28.07 0.73248C28.2921 0.819433 28.4443 0.924714 28.5507 1.14521L28.5616 1.16818C28.6324 1.30356 28.6497 1.44282 28.6665 1.59207L32.6872 2.39462C33.3714 2.55775 36.7232 3.43956 37.0729 4.01786L37.0925 4.051C37.2816 4.36304 37.1793 4.83203 36.8618 5.0199C36.4743 5.24917 36.0663 5.00875 35.6981 4.86437L34.7579 4.52125C33.3783 4.06295 31.9745 3.71828 30.5551 3.41171L27.602 2.85882C27.3286 2.82104 27.0456 2.80262 26.7768 2.74032L29.3328 4.957C31.1811 6.6542 33.5071 8.92023 34.4813 11.2929L34.956 12.7256C35.06 13.0301 35.0718 13.356 35.1105 13.6719C35.2727 14.9963 33.849 14.941 33.7178 14.1281L33.5841 13.1874C33.231 11.6472 32.3299 10.2215 31.3175 9.02776L30.5532 8.19381C29.4476 6.99114 28.2469 5.8892 26.9989 4.83718C26.4557 4.37921 25.9273 3.83786 25.3237 3.45868L22.8416 16.371C23.2569 16.2025 23.7942 16.135 24.238 16.0616L26.49 15.7984L29.5136 15.791C29.7427 15.8011 29.9696 15.8399 30.1982 15.8569L33.4657 16.0937L36.8517 16.4663C38.8461 16.7072 40.8441 16.9985 42.8049 17.4414C42.8749 16.4044 42.8552 14.5837 42.7208 13.5926C42.4403 11.5227 41.3076 9.51011 39.8868 8.01906C39.6837 7.80596 39.434 7.60389 39.2593 7.36918C38.9034 6.89087 39.3066 6.08968 39.9336 6.20809L39.9645 6.21432C40.1613 6.25173 40.3176 6.42653 40.4596 6.55731ZM23.6108 2.66673C23.0714 2.71121 22.5261 2.75865 21.9951 2.86623C17.3271 3.81175 13.3336 7.86221 12.413 12.5338C12.2476 13.3732 12.2896 14.2346 12.1749 15.0834C12.6288 15.2467 13.7052 15.6004 14.1539 15.6905C15.7336 16.2378 17.892 16.7451 19.508 17.0337C20.0946 17.1385 20.6194 17.2881 21.2055 17.1189L24.0463 2.65801L23.6108 2.66673ZM11.9563 16.5468L11.8428 17.4205C11.8211 17.5633 11.7185 17.8405 11.7625 17.9712L14.7322 19.0354C19.3679 20.6231 20.8093 20.5243 25.4316 19.6537L28.3998 19.1844L33.3035 18.7213L36.9186 18.7176C37.2062 18.7249 37.4844 18.7807 37.771 18.7905L40.8961 18.9104L42.4268 19.0799L42.7419 19.1109C42.7677 19.0663 42.7648 19.0337 42.7516 18.9846L42.7301 18.9287C39.867 18.2713 36.9626 17.9442 34.0466 17.6363L31.3512 17.3808C30.8851 17.3387 30.3172 17.2856 29.8509 17.2665L28.8281 17.251C27.2157 17.2461 23.7677 17.2683 22.4252 18.0723C21.4422 18.6609 21.3512 18.7589 20.0778 18.5978L18.5672 18.3354L14.3097 17.2397C13.5242 17.0158 12.7264 16.8208 11.9563 16.5468ZM11.0468 19.301C9.40788 19.7527 7.25102 20.6422 5.73119 21.3998C5.56816 21.4811 5.33079 21.5649 5.19312 21.6783C7.27005 21.9699 9.90921 23.0208 11.802 23.8642C17.3594 26.3402 20.484 26.4341 26.195 24.2163L28.9056 23.0766L35.2184 20.3756C35.429 20.2987 35.6474 20.2618 35.858 20.1925L32.869 20.2052C32.6933 20.2144 32.5211 20.2463 32.3461 20.2591L27.8708 20.7646L24.9967 21.2337C23.4565 21.509 20.8857 21.96 19.3206 21.718L18.2025 21.5555C17.0406 21.3314 15.8662 20.9659 14.7462 20.5885L12.0761 19.6484C11.924 19.5939 11.1596 19.2754 11.0468 19.301ZM3.28427 23.075C2.69416 23.1263 2.18324 23.2022 1.64248 23.4572L1.62881 23.4924C1.90664 23.7178 2.84712 23.6095 3.17688 23.58C3.77796 23.4939 4.26846 23.2828 4.83208 23.0993L3.71566 23.0704C3.57593 23.0711 3.42119 23.0575 3.28427 23.075Z" fill="#4D4D4D"/>
</svg>
