<svg width="30" height="36" viewBox="0 0 30 36" fill="none" xmlns="http://www.w3.org/2000/svg">
<path d="M15.3399 35.2296L4.66893 35.229C4.49835 35.2289 4.32313 35.24 4.15846 35.188L4.12569 35.1773C3.42022 34.9562 3.0231 34.3901 3.02057 33.6749L3.01837 31.4545C2.95466 31.3774 2.84038 31.3528 2.75483 31.3042C1.60522 30.6502 1.05229 27.7452 0.881193 26.4417L0.776381 25.6234C0.756646 25.4317 0.764146 25.192 0.710193 25.0092L0.696881 24.9612C0.651271 24.728 0.661818 24.4666 0.659052 24.2293L0.61124 22.4417C0.605333 22.1408 0.630506 21.8453 0.63899 21.5455L0.682631 20.2711L1.01647 17.4383C1.32927 15.2093 1.85676 12.9487 2.68176 10.8518C3.67133 8.33672 4.53979 7.23253 7.19685 6.69661C5.66015 3.17128 8.50077 1.17731 11.7289 0.932625C12.0947 0.904922 12.4719 0.921328 12.8388 0.920484L14.8434 0.914062L16.2047 0.9195C16.7393 0.925359 17.2864 0.89775 17.8192 0.934875C19.7788 1.07128 22.3698 1.53698 23.0017 3.69403C23.0313 3.79509 23.0405 3.90497 23.0725 4.00266L23.0835 4.03509C23.3169 4.76888 22.859 5.9137 22.5291 6.54694C23.2219 6.86803 24.0053 6.98091 24.7032 7.30772C25.6958 7.77248 26.3653 8.69976 26.7295 9.71503L28.0115 13.2659L28.2007 13.9456C28.2426 14.1651 28.3186 14.3844 28.3694 14.6028L28.7019 16.1026C28.8228 16.6771 28.9424 17.2699 29.0241 17.851L29.3624 20.8218C29.5492 23.4092 29.2603 29.8564 27.3697 31.2415C26.9934 31.5172 26.9757 31.2987 26.9755 31.8043L26.9752 33.2228C26.975 33.4805 27.0209 33.8595 26.9335 34.1002C26.5092 35.2693 25.7488 35.2292 24.6242 35.2296L15.3399 35.2296ZM14.3515 2.37586L12.6872 2.37759C11.2919 2.37994 9.82232 2.45362 8.77002 3.50873C7.04957 5.23373 9.14235 7.60069 10.9571 8.06325C11.3662 8.16755 11.7722 8.25703 12.1941 8.2658L15.4806 8.26777C17.3519 8.27166 19.1612 8.11158 20.5781 6.69413C21.5452 5.72662 22.3196 4.52034 21.1656 3.38156C20.7068 2.9287 20.0994 2.68181 19.4766 2.55347L18.7386 2.4375C18.5186 2.39972 18.2795 2.39845 18.0562 2.39095L14.3515 2.37586ZM21.5149 7.75322C19.9532 9.13214 18.5919 9.56738 16.5892 9.64364L16.6076 9.66572C16.9948 10.1416 18.1974 12.28 18.2315 12.6475C18.2776 13.1434 18.2377 13.6749 18.2384 14.175L18.2404 15.7325C18.2406 15.9629 18.2887 16.3436 18.2055 16.554C17.9489 17.2023 17.21 17.1961 16.898 16.6292L16.8824 16.6017C16.7759 16.4038 16.8306 15.957 16.8308 15.7329L16.8335 13.8006C16.8339 13.4716 16.9371 12.9168 16.7515 12.6315L15.4341 10.4385C15.2843 10.1988 15.1386 9.93239 14.9655 9.71044L13.8363 9.73772C13.92 9.8497 14.0053 10.0284 14.0706 10.1531L14.5722 11.0772C14.7331 11.3602 14.9208 11.6423 15.0186 11.9534L15.0344 11.9922C15.1576 12.311 15.1212 16.5135 15.0555 16.641C15.0324 16.686 15.0036 16.7159 14.9691 16.751L14.9405 16.7807C14.5776 17.1511 14.1116 17.1198 13.8102 16.6861L13.7915 16.6597C13.6133 16.4006 13.7058 16.0046 13.7061 15.7081L13.705 13.6055C13.7046 13.2555 13.8029 12.6171 13.63 12.3114L12.1292 9.66441C10.6843 9.56358 9.50446 9.18173 8.4268 8.2177C8.16093 7.97986 8.17794 7.84031 7.86121 7.94475L7.26571 8.15372C6.17516 8.50978 5.60165 8.50655 4.91104 9.48684C3.91447 10.9014 3.17943 13.6072 2.81563 15.2897L2.30516 18.2896C2.25219 18.6752 2.17138 19.059 2.14733 19.4483L2.04627 20.6509L2.06118 24.6331C2.12591 25.7727 2.65424 29.4553 3.4236 30.013L5.81329 30.0207L5.24197 15.1585C5.22922 14.4072 5.99521 14.2103 6.37649 14.6153C6.65793 14.9143 6.62779 15.3858 6.66754 15.7643L6.9209 19.2037L6.93885 20.6887C6.9433 20.8746 6.97494 21.0596 6.98849 21.2451L7.09902 24.3307L7.13469 27.0003C7.17093 27.7491 7.13563 28.6129 7.2156 29.3103L10.4841 29.0783L12.2094 29.0677C12.3822 29.0643 12.5527 29.0347 12.726 29.0317L16.1576 29.0319L20.5819 29.1941L20.9625 29.2395C21.5229 29.2802 22.0794 29.2532 22.6407 29.3117C22.6488 28.5821 22.7342 27.858 22.7808 27.1311C22.8406 26.198 22.8681 25.2895 22.9051 24.3578L23.0372 21.1526L23.0378 19.0188C23.0381 18.539 23.0256 18.0546 23.0778 17.5768L23.2497 15.8089C23.2819 15.5229 23.2959 15.1593 23.4 14.8913C23.5888 14.4056 24.3116 14.2194 24.5807 14.7307L24.5993 14.7653C24.7397 15.0322 24.6966 15.3015 24.665 15.5889L24.5131 16.9222C24.4935 17.0953 24.4569 17.2621 24.4499 17.4373L24.4372 21.3017C24.4348 21.5852 24.3833 21.8584 24.3793 22.1416L24.3637 23.6591L24.0399 28.8987C24.006 29.2658 23.9674 29.6493 23.9802 30.0183C24.2649 30.0184 26.532 30.0492 26.5986 30.0168C26.6846 29.975 26.7324 29.8425 26.7787 29.7672C27.7441 28.1998 27.9013 25.5733 27.9627 23.6956L27.949 20.6253C27.8411 18.4422 27.2318 15.4716 26.6086 13.4279L25.6995 10.8984C24.8532 8.76708 24.7528 8.74378 22.6002 8.07427C22.2448 7.96373 21.8778 7.83234 21.5149 7.75322ZM11.9695 30.4782L7.2921 30.676L7.30049 31.688C7.30569 32.1034 7.34122 33.3678 7.43315 33.7654L17.8946 33.7661L22.3112 33.7665L22.5098 30.6794C22.2689 30.6386 22.0097 30.656 21.765 30.6551L20.1667 30.6474C19.9236 30.6383 19.6827 30.5923 19.4398 30.574L17.6893 30.4851L11.9695 30.4782ZM4.46399 31.477C4.46071 31.6905 4.45757 33.7 4.49047 33.7647L6.01705 33.7656L5.87919 31.4798L4.46399 31.477ZM23.8909 31.477L23.801 32.7614C23.7828 33.0916 23.7453 33.4299 23.7385 33.7583L25.4732 33.7661L25.5448 31.4767L23.8909 31.477Z" fill="#4D4D4D"/>
</svg>
