<svg width="46" height="39" viewBox="0 0 46 39" fill="none" xmlns="http://www.w3.org/2000/svg">
<path d="M27.0722 38.6528L15.5593 38.6529C15.0842 38.6533 14.5802 38.6864 14.1082 38.6361C12.4658 38.4612 11.2641 37.1222 11.1029 35.5243C11.0817 35.3135 11.1401 34.272 11.0896 34.1691C10.6932 33.3625 10.5778 32.8095 10.6254 31.9332L10.7917 30.1392L10.9315 27.6324C10.9386 27.5003 10.9676 27.3746 10.9787 27.2441L11.0244 26.2678L8.6263 29.3575C7.8335 30.4469 7.01886 31.392 5.47287 31.1865C4.72255 31.0867 4.00405 30.6641 3.33212 30.3345L1.88037 29.6458C1.24091 29.2847 0.836365 28.6081 0.652807 27.9154C0.256821 26.4208 2.45954 20.3943 3.00609 18.9136L4.91567 14.1453L7.45953 8.52486C7.97567 7.46971 8.27244 6.82175 9.17131 5.99718C10.6722 4.62041 11.491 4.51288 13.3425 4.50636C14.9834 4.50064 15.6655 3.5046 16.6207 2.34252C17.2909 1.52726 17.8513 0.468551 18.9428 0.288509L26.3054 0.279312C27.7879 0.277587 27.8694 0.423148 28.826 1.63743L29.7434 2.77804C30.0646 3.19883 30.3606 3.75149 30.8114 4.04389L30.8459 4.06597C31.4018 4.43113 31.9079 4.50594 32.5473 4.50786L33.5592 4.51035C34.1571 4.51288 34.7232 4.62519 35.2812 4.85633C36.8104 5.48994 37.9722 6.93697 38.573 8.44864L40.9188 13.5638L43.2615 19.4268L44.1086 21.9221L44.8308 24.4032C44.872 24.6057 44.9472 24.8051 44.996 25.0066L45.3124 26.4488C45.7338 28.7155 44.6228 29.4624 42.8749 30.2828C41.3889 30.9802 39.9755 31.7967 38.4611 30.585C38.0689 30.2713 37.7955 29.8493 37.488 29.4608L35.3481 26.6949C35.2385 26.5649 35.1032 26.4496 35.0049 26.3137L34.9887 26.291C34.9933 26.6304 35.0386 26.9473 35.0607 27.2822L35.104 28.117C35.1178 28.2655 35.1499 28.4123 35.1599 28.5608L35.2905 30.7948C35.4093 32.3919 35.6468 32.8247 34.8648 34.2756C35.0433 36.0708 34.3832 37.9618 32.4763 38.5109C31.9923 38.6503 31.5591 38.6523 31.0614 38.6526L27.0722 38.6528ZM19.0584 1.76066C18.9962 1.76816 18.9423 1.76361 18.8866 1.79389C19.0539 2.21188 19.2607 2.62949 19.4586 3.03472L22.5825 9.69458C22.7294 10.0124 22.841 10.3443 23.0306 10.6406C23.0915 10.5889 23.1718 10.2836 23.2112 10.1922L24.2821 7.91343L26.8878 2.47836C26.9989 2.25782 27.1473 2.03394 27.2023 1.7923C26.8512 1.73558 26.4771 1.7593 26.122 1.75925L19.0584 1.76066ZM17.8923 3.15041L16.8476 4.37943C16.0825 5.22243 14.9663 5.93502 13.793 5.97833C11.7775 6.05277 11.3027 5.87605 9.69083 7.5816C9.25208 8.0458 9.03162 8.64566 8.75661 9.21364L6.04728 15.2297L3.71666 21.3277C3.16446 22.9518 2.63929 24.5761 2.24987 26.2477C2.09001 26.9339 1.79886 27.66 2.45795 28.2066C2.76551 28.4616 3.10135 28.5383 3.44166 28.7236C3.69069 28.2945 3.9372 27.8514 4.21442 27.4405C4.86603 26.4747 5.09984 26.199 5.52795 25.1193L7.26162 21.0225L9.46264 16.2031L10.0081 15.0996C10.164 14.7666 10.2663 14.3101 10.6579 14.1763C11.0347 14.0474 11.5158 14.1914 11.8542 14.3751C12.9913 14.9922 13.3822 16.058 13.4198 17.2679L21.6397 17.2661C21.8202 17.2661 22.0817 17.3001 22.2535 17.2549L22.2551 12.852C22.2547 12.6059 22.2847 12.4655 22.1581 12.25C22.0267 12.0264 21.9925 11.7308 21.8564 11.5206L14.52 11.5304C13.2934 11.5303 11.99 11.4034 11.0488 10.4954C10.7648 10.2213 10.4464 9.93425 10.3194 9.55035L10.3064 9.51332C10.2572 9.36613 10.257 9.20366 10.3122 9.05816L10.3221 9.03097C10.4581 8.672 10.8722 8.51516 11.224 8.651C11.5108 8.76177 11.638 8.98246 11.8254 9.20394C12.4178 9.90397 13.453 10.0624 14.3177 10.0692L21.1057 10.0492C21.0337 9.97907 21.0141 9.83928 20.9682 9.74877L17.8923 3.15041ZM28.199 3.21477L24.8932 10.073L31.411 10.0701C32.4085 10.0693 33.4616 9.94124 34.1934 9.16213C34.3023 9.04621 34.3849 8.90928 34.4997 8.79866C34.8832 8.4291 35.4814 8.53775 35.6755 9.03472L35.6892 9.06894C36.0456 10.0033 34.136 11.0586 33.4736 11.2988L32.8566 11.4698C32.6123 11.5403 32.3323 11.5261 32.0789 11.5287L24.5981 11.5296C24.0923 11.5295 24.2545 11.558 24.03 11.9865C23.9217 12.1932 23.7237 12.4426 23.7263 12.6793L23.728 17.2664L32.5581 17.2636C32.5717 16.3294 32.8162 15.5105 33.5056 14.8436L33.674 14.6903C34.0802 14.3242 34.711 14.0591 35.2577 14.148L35.2959 14.1535C35.7634 14.2266 35.8971 14.7426 36.0371 15.1191L36.5328 16.1728L37.4637 18.1871L40.1641 24.3981C40.1926 24.4936 40.2408 24.5833 40.2722 24.6793L40.5398 25.3825C40.6908 25.892 41.0218 26.286 41.3287 26.7066L42.0319 27.7496C42.1571 27.9525 42.3064 28.1751 42.3951 28.3959L42.5411 28.6998C42.5552 28.7316 42.5506 28.7209 42.5775 28.7539C43.9461 28.05 44.1571 27.8632 43.7888 26.3115L43.5638 25.3753C43.1036 23.5435 42.5213 21.7587 41.8759 19.9843L40.0976 15.3981L37.7552 10.1903C36.9974 8.53954 36.3408 6.72275 34.402 6.13077C33.5903 5.88299 32.7815 6.05596 31.9645 5.97144C29.8014 5.74766 29.3872 4.59379 28.199 3.21477ZM11.3058 15.7413C11.1485 16.0219 11.0365 16.3463 10.9001 16.6402L8.14151 22.6932L7.16731 24.9972C6.9207 25.5497 6.7678 26.1545 6.49166 26.6916C6.22644 27.2076 5.84356 27.6768 5.5183 28.1569L4.75259 29.3747C5.00862 29.5183 5.24525 29.616 5.53339 29.6628C6.65975 29.8175 7.09737 28.9812 7.67619 28.1866L8.99998 26.4058C9.64292 25.5702 10.3468 24.6585 11.2998 24.1535L11.8646 18.0647C11.9233 17.2628 12.1309 16.5896 11.5209 15.9322L11.3058 15.7413ZM34.682 15.7613L34.649 15.7942C33.8345 16.6015 34.0302 16.8498 34.1165 17.8835L34.6805 23.333C34.7792 24.5961 34.7587 23.9765 35.651 24.806C36.2492 25.3619 36.7595 26.0756 37.2552 26.7251L38.2603 28.0197C38.7728 28.6888 39.3444 29.8263 40.354 29.6855L40.5982 29.6428C40.7862 29.6035 41.1143 29.4708 41.247 29.3323C40.914 28.7178 40.5152 28.1323 40.1112 27.5628C39.5055 26.7088 39.4925 26.748 39.1273 25.7965L38.3593 23.8634L34.9546 16.2514C34.8838 16.0962 34.8194 15.892 34.7062 15.7656L34.682 15.7613ZM13.2947 18.7341L12.7168 24.7628L21.6991 24.7654L22.2544 24.7663L22.2557 19.1848C22.2556 19.0507 22.2801 18.8633 22.2437 18.735L13.2947 18.7341ZM23.7538 18.7301L23.729 24.7677L33.3241 24.7625C33.3772 24.6495 32.9247 20.849 32.872 20.3658C32.813 19.8249 32.7993 19.2689 32.7145 18.7315L23.7538 18.7301ZM12.5291 26.2308L12.4881 27.0501L12.164 31.2886C12.1264 31.6828 12.1003 32.0606 12.1013 32.457C12.1029 33.0716 12.3837 33.9253 13.0915 33.9625L21.8105 33.9645L22.2531 33.9753L22.2558 26.8342C22.2558 26.6503 22.2836 26.414 22.2472 26.2354L12.5291 26.2308ZM23.8442 26.2324L23.7514 26.2419C23.7112 26.389 23.7263 26.5687 23.726 26.7212L23.7242 32.7548C23.7242 33.1515 23.697 33.5711 23.7317 33.9653C24.0916 34.0067 24.4912 33.9665 24.8567 33.9656L30.9902 33.9654C31.872 33.965 32.7703 34.184 33.4667 33.6302C34.2201 32.8685 33.8927 31.7193 33.8156 30.7652L33.5292 26.9086C33.5186 26.6901 33.5365 26.4498 33.4979 26.2361L23.8442 26.2324ZM12.5739 35.3316C12.7573 37.1238 14.0392 37.1623 15.4673 37.1566L30.9525 37.1539C31.7828 37.153 32.2722 37.1738 32.9016 36.513C33.166 36.165 33.3879 35.7655 33.419 35.3192C32.8704 35.4495 32.3827 35.452 31.8208 35.4527L13.1999 35.4459C12.9819 35.4364 12.7858 35.3413 12.5739 35.3316Z" fill="#4D4D4D"/>
</svg>
