<svg width="36" height="36" viewBox="0 0 36 36" fill="none" xmlns="http://www.w3.org/2000/svg">
<circle cx="18" cy="18" r="17.8184" transform="rotate(-0.586857 18 18)" fill="#DCE2E4"/>
<path d="M18.0109 19.1057C21.0642 19.0744 23.514 16.5739 23.4827 13.5206C23.4515 10.4673 20.9509 8.01744 17.8976 8.04872C14.8443 8.07999 12.3945 10.5805 12.4258 13.6338C12.457 16.6871 14.9576 19.137 18.0109 19.1057Z" stroke="#4D4D4D" stroke-width="2" stroke-linecap="round" stroke-linejoin="round"/>
<path d="M26.9473 27.8606C26.9232 25.5147 25.9682 23.2743 24.2924 21.6324C22.6165 19.9905 20.3571 19.0817 18.0111 19.1057C15.6651 19.1297 13.4247 20.0847 11.7829 21.7606C10.141 23.4364 9.2321 25.6959 9.25613 28.0419" stroke="#4D4D4D" stroke-width="2" stroke-linecap="round" stroke-linejoin="round"/>
</svg>
