<svg width="37" height="36" viewBox="0 0 37 36" fill="none" xmlns="http://www.w3.org/2000/svg">
<path d="M6.49999 24V20.43C6.49999 17.25 4.95499 15.75 4.99999 12C5.04499 7.92 7.23499 3 11.75 3C14.555 3 15.5 5.7 15.5 8.25C15.5 12.915 12.5 16.74 12.5 21.27V24C12.5 24.7956 12.1839 25.5587 11.6213 26.1213C11.0587 26.6839 10.2956 27 9.49999 27C8.70434 27 7.94128 26.6839 7.37867 26.1213C6.81606 25.5587 6.49999 24.7956 6.49999 24Z" stroke="#4D4D4D" stroke-width="2" stroke-linecap="round" stroke-linejoin="round"/>
<path d="M30.5 30V26.43C30.5 23.25 32.045 21.75 32 18C31.955 13.92 29.765 9 25.25 9C22.445 9 21.5 11.7 21.5 14.25C21.5 18.915 24.5 22.74 24.5 27.27V30C24.5 30.7956 24.8161 31.5587 25.3787 32.1213C25.9413 32.6839 26.7044 33 27.5 33C28.2956 33 29.0587 32.6839 29.6213 32.1213C30.1839 31.5587 30.5 30.7956 30.5 30Z" stroke="#4D4D4D" stroke-width="2" stroke-linecap="round" stroke-linejoin="round"/>
<path d="M24.5 25.5H30.5" stroke="#4D4D4D" stroke-width="2" stroke-linecap="round" stroke-linejoin="round"/>
<path d="M6.5 19.5H12.5" stroke="#4D4D4D" stroke-width="2" stroke-linecap="round" stroke-linejoin="round"/>
</svg>
