<svg width="44" height="32" viewBox="0 0 44 32" fill="none" xmlns="http://www.w3.org/2000/svg">
<path d="M25.5859 29.0004C24.3143 27.5062 23.7695 25.6812 23.2481 23.8287L22.4646 20.8215C22.3098 20.1591 22.0898 19.4993 21.9857 18.8269L21.0625 22.1836C20.1611 25.1675 18.9998 30.1929 15.5311 31.1892C13.2785 31.8362 10.008 31.3384 7.74424 30.9935C5.58855 30.6652 2.8173 29.9941 1.48519 28.1599C0.0849027 26.2318 1.27016 24.2007 2.11495 22.3414L2.92122 20.3246C3.35561 19.121 3.63986 17.8502 3.9311 16.6055L4.62654 13.3711C4.70196 12.9681 4.78821 12.5514 4.8319 12.1437L4.98977 9.94971C5.07241 8.96389 5.1694 9.50482 5.41736 8.93984C5.66341 8.37931 5.8271 7.7591 6.0243 7.17884L6.81194 5.14601C6.8719 4.99985 7.40426 3.98717 7.40702 3.96026C7.43051 3.73245 7.4118 3.48373 7.41232 3.25404L7.41546 1.81507C7.41701 1.19459 7.3983 0.689932 8.13274 0.520526L35.2327 0.512697C36.3728 0.512041 36.4798 0.674275 36.4799 1.91731L36.4751 3.34999C36.4678 4.32959 36.7208 4.35485 37.1052 5.26128L38.139 7.81404C38.4723 8.86803 38.8131 9.91971 38.9642 11.0195L39.2496 13.3594L39.9065 16.4883C39.9942 16.8049 40.0944 17.122 40.1716 17.4411L40.562 18.7149L41.5103 21.1991L42.1687 22.6999C42.4315 23.2123 42.6187 23.7867 42.8129 24.3282L42.9138 24.6665C43.1487 25.3531 43.1516 26.3872 42.977 27.0821C42.3153 29.7158 39.3735 30.3513 37.0531 30.7614L34.3806 31.1353C34.0617 31.1667 33.7466 31.2218 33.4263 31.2412L31.7863 31.2605C29.3373 31.2678 27.3803 30.8777 25.5859 29.0004ZM9.78372 1.76384L8.6201 1.77973C8.57501 2.14943 8.58138 2.63745 8.62371 3.00902L34.0584 3.01601L35.2527 3.01882C35.3438 2.65062 35.2278 2.15773 35.2811 1.76206L9.78372 1.76384ZM8.98174 4.2236C8.84566 4.2357 8.69721 4.2327 8.56371 4.25674C8.15412 5.0337 7.77958 5.85359 7.47813 6.67873L6.84729 8.56474C7.07993 8.44854 7.28983 8.32962 7.50518 8.18342C8.61382 7.39071 9.68585 6.0019 9.91797 4.63278L9.97301 4.2349L8.98174 4.2236ZM11.2495 4.22412C11.2173 4.3849 11.2109 4.54165 11.1801 4.69521C10.6798 7.19595 8.668 9.46357 6.19675 10.1441C6.13132 10.5743 6.14618 11.0239 6.11585 11.4595L5.93782 12.961C5.9029 13.2221 5.83451 13.4874 5.78191 13.7461L4.85843 17.8767C4.48652 19.4008 4.07754 20.9079 3.43469 22.3452L2.58344 24.1184C1.9992 25.448 1.62677 26.6572 2.79246 27.8284C4.08429 29.1264 6.17055 29.4492 7.89654 29.7539L11.6739 30.2042L13.0586 30.2124C16.1342 30.206 17.1138 29.3357 18.3626 26.4508C18.6491 25.789 18.902 25.122 19.1173 24.4336L21.1888 17.3055C21.2646 17.0015 21.3216 16.6679 21.4247 16.3735C21.5944 15.8885 22.3159 15.6848 22.5417 16.2125L22.5626 16.2657C22.6661 16.5132 22.699 16.8134 22.7573 17.0773L23.3215 19.3183C23.3287 19.3564 23.3398 19.3894 23.3517 19.426L23.7226 20.9075C23.7603 21.0304 23.7721 21.1618 23.8139 21.2827L24.4458 23.7291C24.4533 23.7652 24.4645 23.7971 24.4765 23.8317L24.989 25.4571C25.536 27.0535 26.4321 28.5604 27.9998 29.3217L28.6975 29.6089L30.1053 30.0097C30.5015 30.0856 30.9843 30.0415 31.3895 30.0423L33.0824 30.0124L36.7261 29.5499C40.614 28.9022 43.2048 27.9582 41.1435 23.3266L39.5946 19.6129L38.5463 15.9467L38.0563 13.428L37.5869 10.2111C37.5696 10.1264 37.5608 10.0352 37.5221 9.9574C36.9776 9.69565 36.4189 9.45359 35.9057 9.13179C34.3183 8.13645 33.0435 6.14065 32.9371 4.23274L25.4437 4.22243C24.3219 4.22295 24.4502 3.96185 24.4502 4.9572L24.4462 12.1639C24.4458 12.5119 24.5089 12.8723 24.3245 13.1836C23.5323 14.521 21.7813 13.9197 21.0641 12.8046C20.4147 11.7948 20.3034 9.85259 20.25 8.60135L20.2428 4.22051L11.2495 4.22412ZM21.4817 4.22238C21.4564 4.44246 21.4668 4.65603 21.463 4.87718L21.454 6.12954C21.4525 7.46904 21.3735 10.6557 21.9412 11.867L22.0096 12.023C22.1159 12.2826 22.3872 12.5654 22.6556 12.6603L22.7672 12.6946C22.8985 12.7333 23.044 12.744 23.1787 12.7149C23.2853 12.5882 23.2419 11.0419 23.242 10.8057L23.2406 4.23185C23.0858 4.19337 22.8644 4.21999 22.7015 4.22018L21.4817 4.22238ZM34.1362 4.22281C34.178 4.61459 34.2847 5.00112 34.425 5.36721L34.5463 5.6772C34.9735 6.78115 35.9599 7.87128 37.0501 8.38099C36.9456 8.02231 36.798 7.67295 36.6613 7.32532L35.2896 4.24742L34.1362 4.22281Z" fill="#4D4D4D"/>
</svg>
