<svg width="34" height="40" viewBox="0 0 34 40" fill="none" xmlns="http://www.w3.org/2000/svg">
<path d="M30.7004 37.8745L29.9471 38.4332C28.4902 39.4237 26.7726 39.8519 25.0246 39.8506C24.6858 39.8503 24.3163 39.8703 23.9839 39.8044L23.1051 39.6697C20.2336 39.0891 18.9757 37.7271 17.0535 35.7978L14.7476 33.5265C14.3496 33.1322 14.1518 32.9506 13.654 32.6861L9.91936 30.6289C9.16129 30.2223 8.35345 29.8382 7.64072 29.3567C5.98523 28.2385 4.79555 26.529 4.37845 24.5671C4.1775 23.6218 4.20567 22.6601 4.20642 21.6995L4.20445 8.53488C3.92142 8.53727 3.61162 8.55644 3.33187 8.5166C-1.07302 7.88946 -1.03833 1.52055 3.11447 0.908785C3.58181 0.839973 4.05609 0.849019 4.52719 0.847894L18.3004 0.84766C20.6059 0.847144 22.4448 0.894769 23.3752 3.42972C24.1067 5.42285 22.8819 7.98775 20.7056 8.43846C20.0345 8.57744 20.1023 8.25968 20.1026 9.03508L20.1046 17.4348C20.1046 18.2904 20.0712 19.1666 20.1224 20.0197C20.1601 20.6479 20.79 20.8049 21.2692 20.9769L27.0845 23.1602C28.044 23.5294 29.0032 23.8133 29.8858 24.3593C31.7347 25.5033 33.2039 27.5469 33.5815 29.7082L33.7322 30.5118C34.1126 33.1847 32.7492 36.1965 30.7004 37.8745ZM5.89495 2.36885L5.46126 2.37485C5.3963 2.44732 5.34778 2.50905 5.30639 2.59708L5.04342 3.09714C4.29366 4.68485 4.75162 5.72613 5.48864 7.08686L5.85848 7.08485L6.68447 7.05921C6.59784 6.92529 6.56137 6.68083 6.51806 6.52422C6.20419 5.38915 6.102 4.14649 6.40181 2.99538L6.59531 2.37747L5.89495 2.36885ZM8.67033 2.36885L8.27287 2.37555C8.08786 2.75271 7.94836 3.10699 7.83436 3.51161L7.74244 3.98983C7.63641 4.531 7.73836 5.52466 7.944 6.06213L8.29406 6.95519C8.31065 7.00338 8.33564 7.04233 8.36297 7.08485L8.9992 7.0825L9.55725 7.05846C9.21417 5.90088 9.11808 4.20433 9.37284 3.043C9.42342 2.81238 9.50709 2.59268 9.55903 2.36388L8.67033 2.36885ZM14.1677 2.3673L13.941 2.37424C13.941 2.46677 13.97 2.54627 13.9988 2.63285L14.0369 2.77099C14.3142 3.63963 14.31 4.99211 14.1539 5.90505L13.9975 6.69925C13.9683 6.82549 13.9251 6.95275 13.9072 7.08105L14.8263 7.08246C14.9306 7.0826 15.0984 7.10796 15.1837 7.05161C15.7576 5.70658 16.0099 4.30075 15.4672 2.92188L15.3188 2.57341C15.2916 2.50319 15.2453 2.44014 15.2038 2.37771L14.1677 2.3673ZM19.8132 2.36332C19.957 2.83999 20.1455 3.17847 20.2326 3.71407L20.2463 3.78377C20.4932 4.94514 20.1647 5.99491 19.7838 7.07196C20.2817 7.03277 20.7003 6.9229 21.1127 6.63349C22.8 5.3328 22.1592 2.59577 20.0264 2.37147C19.9593 2.36444 19.8794 2.35268 19.8132 2.36332ZM3.66965 2.38675L3.09497 2.47122C2.53322 2.57974 2.08467 3.01389 1.78369 3.47383C1.07498 4.55674 1.53619 5.87486 2.48255 6.6431C2.83186 6.88699 3.34453 7.07243 3.77442 7.05963C3.14414 5.61611 2.89781 4.17058 3.59587 2.65699C3.63464 2.57294 3.69356 2.48318 3.70383 2.39116L3.66965 2.38675ZM11.1892 2.36824C10.697 3.47796 10.5845 4.7201 10.8596 5.90238C10.9143 6.13741 11.0649 6.94352 11.2021 7.08021L12.3018 7.0825L12.3071 7.05846C12.3731 6.77074 12.4897 6.49535 12.5584 6.20613C12.8937 4.7951 12.7657 3.71032 12.3025 2.377L11.1892 2.36824ZM16.8916 2.3763C16.9537 2.77174 17.1533 3.22258 17.2246 3.69597C17.3885 4.78319 17.2004 5.52241 16.9925 6.5396C16.9561 6.71754 16.8493 6.90414 16.8357 7.08171L18.0081 7.08386C18.0727 6.99963 18.1208 6.91061 18.1711 6.81761C19.0056 5.47985 19.1048 3.65735 18.0503 2.39304C17.9261 2.32516 17.0362 2.36135 16.8916 2.3763ZM5.70155 8.58443L5.70398 19.4778C5.71256 20.2635 5.52408 20.1354 6.25758 20.3333C8.38364 20.9069 10.1955 22.6451 11.0367 24.6496L11.5045 26.2612C11.7355 27.0735 11.6565 28.9868 11.5109 29.7798L14.0758 31.1822C15.3154 31.8778 15.2782 31.9344 16.25 32.8888L19.5086 36.1193C21.3024 37.7675 24.0549 38.826 26.4932 38.1781L25.1172 33.8853C25.0494 33.6848 24.9582 33.4866 24.9212 33.2774C24.7777 32.4639 26.1166 31.8368 26.5628 33.4297L27.9766 37.7894C28.1403 37.7614 28.3345 37.6355 28.4839 37.56C29.6787 36.9559 30.8336 35.8491 31.4178 34.6219L28.6827 33.6085L27.7163 33.2614C27.1088 33.0457 26.0644 32.8429 26.4186 31.9644C26.6942 31.2806 27.3035 31.4922 27.7853 31.6646L32.017 33.2163C32.3755 31.3939 32.2932 30.9497 31.893 29.2545C31.4323 29.3364 30.9832 29.4898 30.531 29.6075L26.948 30.5799C25.5636 31.0008 25.4343 29.5622 26.1269 29.2512C26.3015 29.1729 26.5204 29.1222 26.7059 29.0719L31.2415 27.8393C30.5363 26.5706 29.3226 25.6421 27.9917 25.1091L20.6854 22.3699C18.8098 21.655 18.6188 21.0482 18.6174 19.0173L18.6179 8.58799L5.70155 8.58443ZM5.73112 21.76C5.57765 24.4859 6.30412 26.7996 8.80387 28.3003C8.99822 28.417 10.0501 29.0467 10.0812 28.8946L10.1291 28.3754C10.1954 27.9223 10.1555 27.4172 10.0897 26.9671C9.69614 24.2784 8.20669 22.6194 5.73112 21.76Z" fill="#4D4D4D"/>
</svg>
