<svg width="40" height="40" viewBox="0 0 40 40" fill="none" xmlns="http://www.w3.org/2000/svg">
<path d="M27.5297 38.4683L25.0981 38.4594C24.9106 38.4504 24.7296 38.4117 24.5436 38.3935L21.7114 37.9763C20.1759 37.6343 19.9618 37.5792 18.3357 37.9586L17.3659 38.1462C15.9762 38.3758 14.5575 38.4701 13.1508 38.4708C11.7654 38.4715 10.2831 38.286 9.91413 36.6301C9.81349 36.1786 9.88503 35.7033 9.80459 35.2549C9.72804 35.1748 9.64034 35.153 9.55076 35.0948C8.25209 34.2522 8.35142 33.2093 8.15553 31.894L7.76328 29.8823C7.56668 30.4465 7.44673 31.0415 7.28796 31.6176L6.81682 33.0773C6.52962 33.9211 6.06546 34.7053 5.80985 35.5538L5.08864 38.5037C4.75929 39.6903 4.44035 39.4657 3.41778 39.2955C2.59179 39.1582 0.396912 38.9475 0.196263 37.9629L0.189602 37.9292C0.156457 37.7756 0.163104 37.599 0.179974 37.443L0.342518 35.509C0.45213 34.6449 0.423368 34.7092 0.317627 33.9214C0.22083 33.2002 0.304568 32.4151 0.390162 31.6948L0.869697 28.2993L1.37201 22.6767L2.55996 14.0815L3.64728 8.16356L4.01637 6.93333C4.19571 6.33717 4.32696 5.69676 4.63685 5.15297C5.50179 3.63497 7.1472 2.36526 8.87576 2.02926C9.27542 1.95159 9.67924 1.94667 10.0811 1.8967C11.6169 1.70559 12.6237 0.888655 13.9562 0.526578L14.9667 0.518366C16.8062 0.522969 17.0696 1.59469 18.7121 1.89769C19.9142 2.1195 21.3719 2.08008 22.4581 1.49705C23.2015 1.098 23.3223 0.853358 24.2008 0.581183C24.5033 0.487489 25.8958 0.460546 26.1866 0.577925C27.0822 0.939514 27.9499 1.44581 28.8846 1.69336C29.4507 1.84331 30.0228 1.86998 30.5992 1.94334C32.4589 2.17983 34.1298 3.25036 35.1513 4.82578C35.8987 5.97839 36.3931 8.24789 36.683 9.69844L37.5319 14.7378L38.5981 22.3695L39.5662 29.9631C39.6997 30.8651 39.9058 33.1105 39.6607 34.0034C39.3484 35.1405 40.1596 37.541 39.7391 38.2465L39.7167 38.2822C39.2266 39.0175 36.8505 39.2758 35.9965 39.4403C35.0765 39.6174 34.9353 38.4862 34.7663 37.8482C34.5194 36.9162 34.3661 35.9867 34.0285 35.0763C33.8731 34.6572 33.6471 34.2854 33.4596 33.8831C32.795 32.4572 32.642 30.8354 32.4005 29.3005L31.8723 32.439C31.6826 33.8194 31.2669 34.5015 30.2029 35.304L30.1361 36.1572C29.9932 37.6969 29.0265 38.3796 27.5297 38.4683ZM15.0785 1.98778L14.9883 2.00348C14.9419 2.7803 16.5362 3.88336 17.1084 4.24669C17.9312 4.76916 19.7546 5.19262 20.7458 4.96237L20.8136 4.94531C21.0802 4.87898 21.36 4.86178 21.6293 4.7865C22.6518 4.50089 23.6817 3.85284 24.4151 3.07575C24.7147 2.74369 24.8922 2.42887 24.9289 1.97644C24.7827 1.97175 24.6452 1.96762 24.5004 1.99247L24.4733 1.99669C24.2576 2.03601 23.9659 2.30658 23.7849 2.43136C22.4125 3.37734 20.7639 3.59855 19.135 3.46964C18.1106 3.38859 17.1271 3.03886 16.2629 2.49225C15.8872 2.25459 15.5562 1.94109 15.0785 1.98778ZM13.4895 2.3159L12.5356 2.74908C11.8225 3.05686 10.9556 3.32728 10.1769 3.41264C9.84626 3.44887 9.50262 3.4463 9.17628 3.51122C8.05198 3.73486 6.48964 4.68642 6.00139 5.79572L5.97996 5.85117C6.29192 6.19556 6.65248 6.49523 6.96274 6.84647C9.19362 9.37214 9.97385 13.0357 9.58118 16.3323L9.39218 17.5117L8.84646 23.6909C8.70101 24.8982 8.61026 26.6514 8.88729 27.8586L9.5292 31.1213C9.7466 31.9435 9.47684 33.0006 10.135 33.6506C11.0611 34.5653 12.2549 34.4454 13.4224 34.3711L14.6684 34.274C16.0897 34.1785 16.6985 34.0843 17.9848 33.5926C19.1631 33.1421 20.6945 33.0799 21.8815 33.5385C22.9612 33.9556 23.2812 34.0672 24.4654 34.1954L26.7387 34.3726C27.7533 34.4348 28.1002 34.5256 29.1631 34.1255C30.4044 33.4923 30.3035 32.6178 30.5257 31.4136L31.1568 27.4761C31.1882 27.1353 31.2472 26.8008 31.2618 26.4598L31.2746 25.6465C31.2759 25.0921 31.2961 24.5267 31.265 23.9737L30.4579 16.4543C30.3621 15.7772 30.3304 15.1438 30.3306 14.4621C30.3314 11.5734 31.3602 8.46431 33.4683 6.42412C33.6574 6.24117 33.8915 6.08911 34.0674 5.89767C33.4887 4.82137 32.4118 3.97575 31.247 3.61917C30.6948 3.45009 30.1356 3.46589 29.5746 3.36712C28.8201 3.23428 28.0869 3.05484 27.3776 2.76103L26.4187 2.32167C26.0041 4.3958 23.5169 5.92031 21.5678 6.33642C20.5018 6.564 19.2881 6.53512 18.2297 6.29241C16.4867 5.8927 14.1513 4.33364 13.5724 2.55197C13.5493 2.48076 13.5388 2.36611 13.4895 2.3159ZM5.41821 7.3537C5.26976 7.75678 5.16335 8.17706 5.05681 8.59289L4.53326 11.0229L3.36457 18.664L2.65362 24.3551L2.32596 28.451L1.85853 31.7417C1.79351 32.2039 1.62345 33.3978 1.79773 33.8256C2.36946 34.3143 3.70081 34.4047 4.41992 34.2355C4.55388 34.1901 4.68237 34.1498 4.7996 34.068C5.81417 31.861 6.68407 28.5708 7.06179 26.105L7.52646 22.3281L7.94285 17.3219C8.02685 16.6863 8.1552 16.0539 8.20273 15.4135C8.43373 12.3033 7.50284 9.61373 5.41821 7.3537ZM34.5857 7.40184L34.5583 7.43498C34.4377 7.57978 34.2928 7.7069 34.1678 7.84903C32.3595 9.90469 31.5706 12.8041 31.8035 15.5116L32.7785 23.9904C32.8872 24.5413 32.9566 25.1203 33.1643 25.647C33.2347 25.8258 33.2832 26.0736 33.3224 26.2624L33.532 27.1532C33.6186 27.4589 33.6422 27.7952 33.6996 28.1084L34.1206 30.9203C34.1427 31.0667 34.1513 31.2111 34.1943 31.3533L34.3698 32.0815C34.4344 32.2766 34.4887 32.4767 34.5678 32.6661L35.013 33.7012C35.0731 33.8271 35.1252 33.9514 35.2049 34.0671L35.2197 34.089C35.2877 34.179 35.5166 34.1994 35.6249 34.2419C36.0286 34.3224 36.3384 34.3172 36.7505 34.2797C38.1394 34.1531 38.2997 33.9028 38.3005 32.6296C38.3013 31.4348 38.0945 30.2843 37.9418 29.1047L37.153 22.4992L35.6884 12.3574C35.4771 11.0169 35.2321 9.66262 34.8765 8.35176L34.6904 7.67644C34.6722 7.61625 34.6454 7.4294 34.5857 7.40184ZM19.8485 34.7281C18.7535 34.8217 18.3418 35.1393 17.3669 35.3937C15.9562 35.7618 12.7931 36.0613 11.2951 35.801C11.3151 36.0564 11.3051 36.3476 11.4413 36.5698L11.4534 36.5914C11.5523 36.7607 11.8075 36.8722 11.9793 36.9402L12.0083 36.9525C12.2207 37.0374 12.5957 36.9935 12.824 36.9937L14.0485 36.9869L16.6914 36.7259C17.8864 36.5467 18.9439 36.1918 20.1627 36.193C21.065 36.2416 21.8457 36.5235 22.7249 36.6783L25.1418 36.9742L26.7933 36.9982C27.1912 36.9999 27.6608 37.05 28.0353 36.9097L28.0732 36.8961C28.6444 36.6866 28.6378 36.3486 28.6654 35.8199C27.9139 35.9936 27.1916 35.8853 26.4335 35.8413C25.007 35.7586 23.4343 35.7256 22.0797 35.214C21.3064 34.9219 20.7168 34.6761 19.8485 34.7281ZM1.81217 35.5268L1.63399 37.388C2.29779 37.6341 3.04845 37.7686 3.75293 37.8271L3.8021 37.5956L4.21831 35.7682C3.50989 35.819 2.82148 35.8177 2.13574 35.6183C2.05329 35.5943 1.88895 35.5108 1.81217 35.5268ZM38.1103 35.5972L36.9949 35.769C36.6159 35.8344 36.1699 35.8372 35.791 35.7714L36.2238 37.653L36.3052 37.848C37.0044 37.7835 37.7496 37.6714 38.3939 37.3855C38.3687 37.0301 38.2762 35.9298 38.185 35.591L38.1103 35.5972Z" fill="#4D4D4D"/>
</svg>
