<svg width="44" height="40" viewBox="0 0 44 40" fill="none" xmlns="http://www.w3.org/2000/svg">
<path d="M15.717 39.1324L10.986 38.4879C10.03 38.3789 9.71627 38.1456 9.72152 37.1844L9.74392 26.2796C9.75349 26.0739 9.80102 25.8756 9.81053 25.6696L10.1136 18.6022C10.122 18.3924 10.1431 18.189 10.1343 17.9787C9.87958 18.2776 9.46024 18.607 9.11927 18.7855L8.86469 18.9131C7.28725 19.6086 5.67217 18.6718 4.32288 17.9211L2.57514 16.9184C1.89455 16.4868 0.620517 15.6134 0.303361 14.8617L0.243164 14.7035C0.147501 14.4356 0.121584 14.1011 0.167784 13.8201L0.173142 13.7895C0.254278 13.2702 0.515775 12.9947 0.893817 12.6684L2.78702 11.0468C4.07407 9.87697 4.86803 8.76003 5.75247 7.24653L6.66682 5.69464C7.77691 3.95816 9.13736 2.46983 11.2422 2.03057L12.6082 1.80406C13.3844 1.65467 14.1129 1.38336 14.8051 1.00489L15.3907 0.666385C16.2992 0.11379 16.3079 0.268684 17.1585 0.652768C19.9165 1.89819 24.2064 1.90203 26.9299 0.574037C27.1633 0.460234 27.37 0.327324 27.6275 0.270868C28.0224 0.233256 28.3175 0.526862 28.6374 0.706018C29.7152 1.30958 30.7287 1.69588 31.9493 1.90358C32.2094 1.94783 32.4756 1.96527 32.7344 2.02325C35.1695 2.56897 36.5149 4.31657 37.7468 6.38324L38.5075 7.69025C39.6723 9.56581 40.6313 10.5868 42.2777 11.9798C43.6905 13.175 44.648 14.1986 43.0182 15.7357C41.9998 16.6961 40.6919 17.378 39.4725 18.0483C37.6182 19.0677 35.5824 19.8773 33.8871 18.0408L33.8658 18.0174C33.8539 18.2345 33.9011 19.2736 33.9303 19.4338C34.0675 20.1866 34.0031 21.2309 34.0557 22.0698L34.1341 23.8719C34.1452 24.0386 34.1716 24.2031 34.1772 24.3704L34.1921 26.3241C34.1969 26.4952 34.2363 26.6616 34.2429 26.8325L34.2481 28.1791C34.2521 28.3863 34.2879 28.5898 34.2911 28.7954L34.2959 35.3157C34.296 35.7109 34.3484 37.542 34.2545 37.7152C34.0922 38.0149 33.9688 38.2361 33.6441 38.3898L33.6073 38.4067C33.4538 38.478 33.2984 38.4774 33.1329 38.4948L25.5791 39.4725L22.8438 39.6411C22.172 39.665 21.5074 39.6291 20.8375 39.601L19.7581 39.5718L15.717 39.1324ZM16.8948 2.15277C16.8896 2.45896 17.1423 3.44966 17.2359 3.72308C17.6289 4.87128 18.1299 5.87919 18.9336 6.80071C19.8147 7.81086 20.5151 8.11208 21.7926 8.11583C23.5211 8.12099 24.2562 7.92852 25.3635 6.45632L25.7515 5.88702C26.2449 5.03788 26.6253 4.21067 26.8344 3.24547L26.9627 2.57028C26.9853 2.43317 26.9943 2.2851 27.0359 2.15263C24.3992 3.38839 20.0247 3.29577 17.3903 2.34322L16.8948 2.15277ZM15.4504 2.3128C14.7207 2.66957 14.0256 2.97435 13.2344 3.17338C12.5451 3.34677 11.8232 3.39866 11.1443 3.59591C8.91958 4.24236 7.87657 6.58007 6.77599 8.40289C5.68858 10.204 4.57146 11.5029 2.95446 12.8637L1.95858 13.7183C1.83222 13.8321 1.68064 13.9467 1.58046 14.0834C1.99401 15.0704 4.42277 16.308 5.33777 16.8013C6.74444 17.5597 7.77208 18.2165 9.08018 16.9726C9.47571 16.5965 9.85675 16.1453 10.3036 15.8366L10.3676 14.2661C10.3886 13.1535 11.4967 13.0104 11.7989 13.8715L11.8146 13.906C11.8733 14.0414 11.7349 16.4631 11.7075 16.5903C11.6262 16.9659 11.6599 17.3852 11.6374 17.7698L11.548 19.309C11.5411 19.4111 11.5136 19.5094 11.5082 19.6103L11.3217 23.4636L11.182 27.4824L11.175 29.4575C11.1702 29.6297 11.1389 29.7994 11.1335 29.9719L11.1274 31.996C11.1278 32.3671 11.1039 32.7641 11.1541 33.1309L32.8713 33.1278L32.8706 30.502C32.8703 30.0774 32.9144 29.5807 32.8432 29.1643L32.8501 29.1433C32.72 28.6386 32.8044 27.0947 32.7953 26.4966L32.6815 23.3338L32.5244 20.4903C32.4986 19.7513 32.4401 19.0235 32.4206 18.2965L32.2098 14.8242C32.195 14.5623 32.1262 14.2882 32.1495 14.0266C32.2002 13.4569 32.9065 13.1023 33.3544 13.4918C33.9001 13.9664 33.4339 15.4534 33.68 15.8488C33.715 15.905 33.8939 15.9924 33.9564 16.0512L34.89 16.9722C35.8391 17.8627 36.6886 17.8293 37.8535 17.2408L38.9673 16.6371C39.6797 16.2489 42.0996 14.9821 42.3699 14.1693L42.3919 14.0979C42.2704 13.891 42.057 13.7324 41.8799 13.5737L40.5068 12.3846C38.8187 10.8705 37.8485 9.44258 36.6795 7.49652C35.6041 5.70632 34.7138 4.04839 32.5586 3.50464C31.3612 3.20253 30.655 3.22696 29.4273 2.71644L28.4776 2.31182C28.1757 4.88024 27.1036 7.24841 25.0325 8.89452C24.5605 9.26966 22.4864 10.7955 21.8615 10.7105C21.6641 10.6836 21.4094 10.5 21.2298 10.4062C18.1819 8.81427 15.7915 5.80307 15.4516 2.31622L15.4504 2.3128ZM11.2407 34.6075L11.1488 34.616C11.1165 34.7947 11.1274 34.9876 11.1271 35.1692L11.1266 36.0775C11.1266 36.3812 11.0894 36.7449 11.1364 37.0417C11.3302 37.0707 11.5254 37.0734 11.7204 37.0917L15.4852 37.6172L19.3768 38.0388C20.1024 38.1088 21.0131 38.1479 21.7573 38.162C22.1047 38.1685 22.4501 38.1281 22.7969 38.1193L24.2953 38.0887C24.4248 38.0802 24.5466 38.0499 24.6753 38.0395L29.7461 37.4351C30.4039 37.3485 31.062 37.2189 31.7231 37.1633L32.3711 37.0861C32.534 37.0708 32.7126 37.0735 32.8707 37.0342L32.8704 34.6119L11.2407 34.6075Z" fill="#4D4D4D"/>
</svg>
